<svg width="35" height="35" viewBox="0 0 35 35" fill="none" xmlns="http://www.w3.org/2000/svg">
<circle cx="17.5" cy="17.5" r="17.5" fill="url(#paint0_linear)"/>
<path d="M28.1945 11.779C27.3991 12.1279 26.5516 12.3592 25.668 12.4715C26.577 11.9287 27.2708 11.0759 27.597 10.0479C26.7495 10.5532 25.8137 10.9101 24.8164 11.1093C24.0117 10.2524 22.8647 9.72168 21.6135 9.72168C19.1858 9.72168 17.2314 11.6921 17.2314 14.1077C17.2314 14.4553 17.2608 14.7895 17.333 15.1077C13.6875 14.9299 10.4618 13.1827 8.29487 10.5211C7.91655 11.1775 7.69464 11.9287 7.69464 12.7375C7.69464 14.2561 8.47667 15.6023 9.64236 16.3816C8.93787 16.3683 8.24674 16.1637 7.66122 15.8416C7.66122 15.8549 7.66122 15.8723 7.66122 15.8897C7.66122 18.0206 9.18117 19.7905 11.1743 20.1982C10.8174 20.2958 10.4284 20.3426 10.0247 20.3426C9.74396 20.3426 9.46056 20.3265 9.19454 20.2677C9.76268 22.0042 11.3749 23.2809 13.2918 23.3223C11.8 24.4893 9.90572 25.1925 7.85506 25.1925C7.49546 25.1925 7.15056 25.1765 6.80566 25.1323C8.74804 26.3849 11.05 27.1001 13.5325 27.1001C21.6014 27.1001 26.0129 20.4161 26.0129 14.6224C26.0129 14.4286 26.0062 14.2414 25.9968 14.0556C26.8671 13.438 27.5983 12.6667 28.1945 11.779Z" fill="white"/>
<defs>
<linearGradient id="paint0_linear" x1="0" y1="0" x2="35" y2="35" gradientUnits="userSpaceOnUse">
<stop stop-color="#FF0A6C"/>
<stop offset="1" stop-color="#2D27FF"/>
</linearGradient>
</defs>
</svg>
