<svg width="35" height="35" viewBox="0 0 35 35" fill="none" xmlns="http://www.w3.org/2000/svg">
<circle cx="17.5" cy="17.5" r="17.5" fill="white"/>
<path d="M17.4978 0C7.83562 0 0 7.80395 0 17.4309C0 25.1306 4.54375 31.6931 11.5 34C12.375 34.1606 13.1644 33.5922 13.1644 33.1299C13.1644 32.7154 13.1491 31.6195 13.1403 30.1655C8.27312 31.218 7.245 27.8282 7.245 27.8282C6.45094 25.8142 5.3025 25.2782 5.3025 25.2782C3.71219 24.1975 5.42062 24.2192 5.42062 24.2192C7.17719 24.3429 8.10031 26.0161 8.10031 26.0161C9.66219 28.6789 12.1975 27.9106 13.195 27.4636C13.3525 26.3373 13.8053 25.569 14.3062 25.1328C10.4212 24.6923 6.335 23.197 6.335 16.5194C6.335 14.6161 7.0175 13.0601 8.1375 11.8405C7.95594 11.3999 7.35656 9.6269 8.30813 7.22886C8.30813 7.22886 9.77813 6.7601 13.1206 9.01491C14.5163 8.62862 16.0125 8.43548 17.5022 8.42897C18.9875 8.43765 20.4859 8.62862 21.8837 9.01708C25.2241 6.76227 26.6919 7.23103 26.6919 7.23103C27.6456 9.63124 27.0462 11.4021 26.8669 11.8427C27.9891 13.0623 28.665 14.6183 28.665 16.5216C28.665 23.2165 24.5744 24.6901 20.6762 25.122C21.3041 25.6602 21.8641 26.7236 21.8641 28.349C21.8641 30.6798 21.8422 32.5592 21.8422 33.1299C21.8422 33.5965 22.6119 34.1714 23.5 34C30.5 31.5 35 25.1285 35 17.4309C35 7.80395 27.1644 0 17.4978 0Z" fill="url(#paint0_linear)"/>
<defs>
<linearGradient id="paint0_linear" x1="0" y1="0" x2="34.0176" y2="34.9862" gradientUnits="userSpaceOnUse">
<stop stop-color="#FF0A6C"/>
<stop offset="1" stop-color="#2D27FF"/>
</linearGradient>
</defs>
</svg>
