<svg width="38" height="38" viewBox="0 0 38 38" fill="none" xmlns="http://www.w3.org/2000/svg">
<path fill-rule="evenodd" clip-rule="evenodd" d="M19 34.8334C27.7445 34.8334 34.8333 27.7445 34.8333 19C34.8333 10.2555 27.7445 3.16669 19 3.16669C10.2555 3.16669 3.16663 10.2555 3.16663 19C3.16663 27.7445 10.2555 34.8334 19 34.8334ZM24.5979 13.4021C25.2162 12.7838 26.2187 12.7838 26.8371 13.4021C27.4554 14.0204 27.4554 15.0229 26.8371 15.6413L17.8863 24.5921L17.8804 24.5979C17.7205 24.7579 17.5349 24.8764 17.3368 24.9536C17.0563 25.063 16.7509 25.0893 16.4584 25.0327C16.159 24.9747 15.8731 24.8298 15.6412 24.5979L15.6352 24.5919L11.1629 20.1196C10.5446 19.5013 10.5446 18.4988 11.1629 17.8804C11.7812 17.2621 12.7837 17.2621 13.4021 17.8804L16.7608 21.2392L24.5979 13.4021Z" fill="white"/>
</svg>
