<svg width="38" height="38" viewBox="0 0 38 38" fill="none" xmlns="http://www.w3.org/2000/svg">
<path d="M4.75 11.0834C4.75 9.33445 6.16777 7.91669 7.91667 7.91669H30.0833C31.8322 7.91669 33.25 9.33445 33.25 11.0834V14.25H26.9167C24.2933 14.25 22.1667 16.3767 22.1667 19C22.1667 21.6234 24.2933 23.75 26.9167 23.75H33.25V26.9167C33.25 28.6656 31.8322 30.0834 30.0833 30.0834H7.91667C6.16777 30.0834 4.75 28.6656 4.75 26.9167V11.0834Z" fill="white"/>
<path fill-rule="evenodd" clip-rule="evenodd" d="M23.75 19C23.75 17.2511 25.1678 15.8334 26.9167 15.8334H33.25C34.1245 15.8334 34.8333 16.5422 34.8333 17.4167V20.5834C34.8333 21.4578 34.1245 22.1667 33.25 22.1667H26.9167C25.1678 22.1667 23.75 20.7489 23.75 19ZM28.5 19C28.5 19.8745 27.7911 20.5834 26.9167 20.5834C26.0422 20.5834 25.3333 19.8745 25.3333 19C25.3333 18.1256 26.0422 17.4167 26.9167 17.4167C27.7911 17.4167 28.5 18.1256 28.5 19Z" fill="white"/>
</svg>
