<svg width="35" height="35" viewBox="0 0 35 35" fill="none" xmlns="http://www.w3.org/2000/svg">
<path d="M17.4999 0C27.1655 0 35 7.83562 35 17.5001C35 27.1645 27.1655 35 17.4999 35C7.83442 35 0 27.1644 0 17.5001C0 7.83574 7.83454 0 17.4999 0Z" fill="url(#paint0_linear)"/>
<path d="M17.0777 14.2202C17.6311 14.2202 18.0643 14.044 18.3815 13.7937C18.6965 13.5421 18.854 13.1998 18.854 12.7601V10.1066C18.854 9.71611 18.6933 9.39341 18.3727 9.14519C18.05 8.89685 17.6377 8.77335 17.1324 8.77335C16.5801 8.77335 16.1382 8.89037 15.8111 9.12549C15.483 9.36169 15.3189 9.6767 15.3189 10.0759V12.7381C15.3189 13.1755 15.4786 13.5212 15.7979 13.7804C16.1173 14.0397 16.5451 14.2202 17.0777 14.2202ZM16.4992 10.2051C16.4992 10.1044 16.5517 10.0236 16.6556 9.95904C16.7606 9.89669 16.8963 9.86605 17.0626 9.86605C17.2441 9.86605 17.3907 9.89669 17.5012 9.95904C17.6128 10.0236 17.6675 10.1045 17.6675 10.2051V12.7273C17.6675 12.852 17.6128 12.9504 17.5034 13.0215C17.394 13.0915 17.2475 13.1276 17.0626 13.1276C16.8821 13.1276 16.7421 13.0937 16.6447 13.0226C16.5485 12.9536 16.4992 12.8552 16.4992 12.7273V10.2051ZM20.7397 14.2169C20.9343 14.2169 21.1323 14.1053 21.338 13.9938C21.5458 13.88 21.7437 13.7138 21.9341 13.4973V14.0868H22.9677V8.76566H21.9341V12.8049C21.8379 12.9197 21.7307 13.0149 21.6159 13.0903C21.4988 13.1647 21.4026 13.203 21.3272 13.203C21.2298 13.203 21.1587 13.1756 21.1171 13.1177C21.0734 13.062 21.0494 12.9711 21.0494 12.8464V8.76674H20.018V13.2129C20.018 13.5301 20.0803 13.7675 20.1995 13.925C20.3207 14.0834 20.5001 14.2169 20.7397 14.2169ZM23.7453 16.4165H11.2546C9.26838 16.4165 7.65942 17.9642 7.65942 19.8706V22.7909C7.65942 24.6984 9.26838 26.2461 11.2546 26.2461H23.7452C25.7303 26.2461 27.3403 24.6984 27.3403 22.7909V19.8706C27.3404 17.9641 25.7304 16.4165 23.7453 16.4165ZM13.1128 19.3806H12.0082V23.9546H10.9397V19.3806H9.83498V18.6007H13.113C13.1128 18.6007 13.1128 19.3806 13.1128 19.3806ZM16.4095 24.0181H15.2578V23.5434C15.0434 23.7184 14.8236 23.8529 14.5917 23.9426C14.3631 24.0367 14.1399 24.0815 13.9235 24.0815C13.6566 24.0815 13.4575 24.017 13.3219 23.8869C13.1884 23.7589 13.1196 23.5665 13.1196 23.3094V19.6978H14.2713V23.0108C14.2713 23.1136 14.2953 23.1858 14.3413 23.2317C14.3916 23.2787 14.4714 23.2995 14.5787 23.2995C14.6619 23.2995 14.7712 23.2699 14.9002 23.2087C15.0303 23.1485 15.1496 23.0719 15.2579 22.9768V19.6966H16.4096C16.4095 19.6966 16.4095 24.0181 16.4095 24.0181ZM20.7691 23.1956C20.7691 23.4789 20.6793 23.6943 20.5012 23.8464C20.325 23.9984 20.0648 24.0727 19.729 24.0727C19.5048 24.0727 19.3057 24.0443 19.1329 23.9864C18.959 23.9284 18.7949 23.8387 18.6462 23.7151V24.0213H17.4966V18.6007H18.6462V20.3475C18.8015 20.2272 18.9644 20.1331 19.1339 20.0697C19.3078 20.0052 19.4828 19.9745 19.659 19.9745C20.0188 19.9745 20.2933 20.0588 20.4826 20.2283C20.6739 20.3989 20.7691 20.6494 20.7691 20.9764C20.7691 20.9763 20.7691 23.1956 20.7691 23.1956ZM25.1507 21.976H23.0289V22.7569C23.0289 22.9746 23.0638 23.1255 23.1371 23.2108C23.2115 23.2951 23.3373 23.3366 23.5134 23.3366C23.6994 23.3366 23.8263 23.3006 23.9006 23.2295C23.9728 23.1573 24.0122 23.0008 24.0122 22.7559V22.5677H25.153V22.7799C25.153 23.2042 25.0163 23.5237 24.7341 23.7391C24.4563 23.9534 24.0406 24.0606 23.4883 24.0606C22.9907 24.0606 22.5991 23.9468 22.3137 23.7194C22.0293 23.4941 21.8849 23.1791 21.8849 22.781V20.9193C21.8849 20.5617 22.0424 20.2664 22.3574 20.04C22.6713 19.8147 23.0738 19.7021 23.5714 19.7021C24.0789 19.7021 24.4694 19.8071 24.7428 20.016C25.0152 20.2249 25.1508 20.5267 25.1508 20.9184C25.1507 20.9184 25.1507 21.976 25.1507 21.976ZM12.4939 14.2323H13.7987V11.0527L15.318 6.56836H13.9912L13.184 9.63309H13.1008L12.2543 6.56836H10.9385L12.4937 11.196C12.4939 11.196 12.4939 14.2323 12.4939 14.2323ZM19.1219 20.6088L18.8802 20.6482L18.6451 20.7696V23.2612C18.737 23.3257 18.8277 23.375 18.9153 23.4022L19.1898 23.4449C19.3298 23.4449 19.4315 23.4175 19.4971 23.3596C19.5617 23.3038 19.5955 23.2119 19.5955 23.0861V21.02C19.5955 20.8833 19.5572 20.7815 19.4764 20.7127C19.3932 20.6439 19.2762 20.6088 19.1219 20.6088Z" fill="white"/>
<path d="M23.5747 20.4268C23.3975 20.4268 23.2717 20.464 23.1941 20.5405C23.1176 20.6138 23.0803 20.7385 23.0803 20.9124V21.3302H24.0614V20.9124C24.0614 20.7385 24.0209 20.6149 23.9444 20.5405C23.8688 20.464 23.7432 20.4268 23.5747 20.4268Z" fill="white"/>
<defs>
<linearGradient id="paint0_linear" x1="-5.87911" y1="-5.87911" x2="48.5231" y2="48.5231" gradientUnits="userSpaceOnUse">
<stop stop-color="#FF0A6C"/>
<stop offset="1" stop-color="#2D27FF"/>
</linearGradient>
</defs>
</svg>
